%TF.GenerationSoftware,KiCad,Pcbnew,9.0.0*%
%TF.CreationDate,2025-05-18T10:37:10+02:00*%
%TF.ProjectId,HexAgon,48657841-676f-46e2-9e6b-696361645f70,rev?*%
%TF.SameCoordinates,Original*%
%TF.FileFunction,Paste,Top*%
%TF.FilePolarity,Positive*%
%FSLAX46Y46*%
G04 Gerber Fmt 4.6, Leading zero omitted, Abs format (unit mm)*
G04 Created by KiCad (PCBNEW 9.0.0) date 2025-05-18 10:37:10*
%MOMM*%
%LPD*%
G01*
G04 APERTURE LIST*
G04 Aperture macros list*
%AMRoundRect*
0 Rectangle with rounded corners*
0 $1 Rounding radius*
0 $2 $3 $4 $5 $6 $7 $8 $9 X,Y pos of 4 corners*
0 Add a 4 corners polygon primitive as box body*
4,1,4,$2,$3,$4,$5,$6,$7,$8,$9,$2,$3,0*
0 Add four circle primitives for the rounded corners*
1,1,$1+$1,$2,$3*
1,1,$1+$1,$4,$5*
1,1,$1+$1,$6,$7*
1,1,$1+$1,$8,$9*
0 Add four rect primitives between the rounded corners*
20,1,$1+$1,$2,$3,$4,$5,0*
20,1,$1+$1,$4,$5,$6,$7,0*
20,1,$1+$1,$6,$7,$8,$9,0*
20,1,$1+$1,$8,$9,$2,$3,0*%
G04 Aperture macros list end*
%ADD10R,1.500000X0.900000*%
%ADD11R,0.900000X1.500000*%
%ADD12R,0.900000X0.900000*%
%ADD13R,1.130000X0.530000*%
%ADD14R,1.130000X0.230000*%
%ADD15R,0.980000X0.230000*%
%ADD16RoundRect,0.075000X-0.662500X-0.075000X0.662500X-0.075000X0.662500X0.075000X-0.662500X0.075000X0*%
%ADD17RoundRect,0.075000X-0.075000X-0.662500X0.075000X-0.662500X0.075000X0.662500X-0.075000X0.662500X0*%
%ADD18R,1.016000X1.016000*%
%ADD19R,0.500000X0.550000*%
%ADD20R,1.000000X1.400000*%
%ADD21R,1.900000X2.400000*%
%ADD22R,0.550000X0.500000*%
%ADD23R,1.524000X1.270000*%
%ADD24R,1.400000X1.000000*%
%ADD25RoundRect,0.100000X-0.100000X0.637500X-0.100000X-0.637500X0.100000X-0.637500X0.100000X0.637500X0*%
%ADD26R,1.270000X1.524000*%
%ADD27RoundRect,0.100000X0.637500X0.100000X-0.637500X0.100000X-0.637500X-0.100000X0.637500X-0.100000X0*%
%ADD28RoundRect,0.100000X-0.637500X-0.100000X0.637500X-0.100000X0.637500X0.100000X-0.637500X0.100000X0*%
%ADD29R,1.000000X3.150000*%
%ADD30RoundRect,0.250000X0.275000X0.275000X-0.275000X0.275000X-0.275000X-0.275000X0.275000X-0.275000X0*%
%ADD31RoundRect,0.062500X0.350000X0.062500X-0.350000X0.062500X-0.350000X-0.062500X0.350000X-0.062500X0*%
%ADD32RoundRect,0.062500X0.062500X0.350000X-0.062500X0.350000X-0.062500X-0.350000X0.062500X-0.350000X0*%
%ADD33R,0.800000X0.800000*%
%ADD34R,1.500000X0.400000*%
%ADD35R,0.700000X1.100000*%
%ADD36R,1.800000X1.800000*%
%ADD37R,1.400000X1.800000*%
%ADD38R,1.400000X2.600000*%
%ADD39RoundRect,0.150000X0.512500X0.150000X-0.512500X0.150000X-0.512500X-0.150000X0.512500X-0.150000X0*%
%ADD40R,2.800000X2.200000*%
%ADD41R,2.800000X2.800000*%
%ADD42R,2.400000X1.900000*%
G04 APERTURE END LIST*
D10*
%TO.C,U2*%
X205500000Y-142400000D03*
X205500000Y-141130000D03*
X205500000Y-139860000D03*
X205500000Y-138590000D03*
X205500000Y-137320000D03*
X205500000Y-136050000D03*
X205500000Y-134780000D03*
X205500000Y-133510000D03*
X205500000Y-132240000D03*
X205500000Y-130970000D03*
X205500000Y-129700000D03*
X205500000Y-128430000D03*
X205500000Y-127160000D03*
X205500000Y-125890000D03*
D11*
X203735000Y-124640000D03*
X202465000Y-124640000D03*
X201195000Y-124640000D03*
X199925000Y-124640000D03*
X198655000Y-124640000D03*
X197385000Y-124640000D03*
X196115000Y-124640000D03*
X194845000Y-124640000D03*
X193575000Y-124640000D03*
X192305000Y-124640000D03*
X191035000Y-124640000D03*
X189765000Y-124640000D03*
D10*
X188000000Y-125890000D03*
X188000000Y-127160000D03*
X188000000Y-128430000D03*
X188000000Y-129700000D03*
X188000000Y-130970000D03*
X188000000Y-132240000D03*
X188000000Y-133510000D03*
X188000000Y-134780000D03*
X188000000Y-136050000D03*
X188000000Y-137320000D03*
X188000000Y-138590000D03*
X188000000Y-139860000D03*
X188000000Y-141130000D03*
X188000000Y-142400000D03*
D12*
X199650000Y-136080000D03*
X199650000Y-134680000D03*
X199650000Y-133280000D03*
X199650000Y-133280000D03*
X198250000Y-136080000D03*
X198250000Y-136080000D03*
X198250000Y-134680000D03*
X198250000Y-133280000D03*
X196850000Y-136080000D03*
X196850000Y-134680000D03*
X196850000Y-133280000D03*
%TD*%
D13*
%TO.C,USBC_UART0*%
X231053312Y-101621038D03*
X231053312Y-100821038D03*
D14*
X231053312Y-99671038D03*
X231053312Y-98671038D03*
X231053312Y-98171038D03*
X231053312Y-97171038D03*
D13*
X231053312Y-96021038D03*
X231053312Y-95221038D03*
X231053312Y-95221038D03*
X231053312Y-96021038D03*
D14*
X231053312Y-96671038D03*
X231053312Y-97671038D03*
X231053312Y-99171038D03*
X231053312Y-100171038D03*
D13*
X231053312Y-100821038D03*
X231053312Y-101621038D03*
%TD*%
%TO.C,USBC_OTG0*%
X231053312Y-119800000D03*
X231053312Y-119000000D03*
D14*
X231053312Y-118350000D03*
X231053312Y-117350000D03*
X231053312Y-115850000D03*
X231053312Y-114850000D03*
D13*
X231053312Y-114200000D03*
X231053312Y-113400000D03*
X231053312Y-113400000D03*
X231053312Y-114200000D03*
D14*
X231053312Y-115350000D03*
X231053312Y-116350000D03*
X231053312Y-116850000D03*
X231053312Y-117850000D03*
D13*
X231053312Y-119000000D03*
X231053312Y-119800000D03*
%TD*%
D15*
%TO.C,U7*%
X225990000Y-98900000D03*
X225990000Y-98400000D03*
X225990000Y-97900000D03*
X227610000Y-97900000D03*
X227610000Y-98400000D03*
X227610000Y-98900000D03*
%TD*%
D16*
%TO.C,U5*%
X138587500Y-90187500D03*
X138587500Y-90687500D03*
X138587500Y-91187500D03*
X138587500Y-91687500D03*
X138587500Y-92187500D03*
X138587500Y-92687500D03*
X138587500Y-93187500D03*
X138587500Y-93687500D03*
X138587500Y-94187500D03*
X138587500Y-94687500D03*
X138587500Y-95187500D03*
X138587500Y-95687500D03*
X138587500Y-96187500D03*
X138587500Y-96687500D03*
X138587500Y-97187500D03*
X138587500Y-97687500D03*
X138587500Y-98187500D03*
X138587500Y-98687500D03*
X138587500Y-99187500D03*
X138587500Y-99687500D03*
X138587500Y-100187500D03*
X138587500Y-100687500D03*
X138587500Y-101187500D03*
X138587500Y-101687500D03*
X138587500Y-102187500D03*
X138587500Y-102687500D03*
X138587500Y-103187500D03*
X138587500Y-103687500D03*
X138587500Y-104187500D03*
X138587500Y-104687500D03*
X138587500Y-105187500D03*
X138587500Y-105687500D03*
X138587500Y-106187500D03*
X138587500Y-106687500D03*
X138587500Y-107187500D03*
X138587500Y-107687500D03*
D17*
X140500000Y-109600000D03*
X141000000Y-109600000D03*
X141500000Y-109600000D03*
X142000000Y-109600000D03*
X142500000Y-109600000D03*
X143000000Y-109600000D03*
X143500000Y-109600000D03*
X144000000Y-109600000D03*
X144500000Y-109600000D03*
X145000000Y-109600000D03*
X145500000Y-109600000D03*
X146000000Y-109600000D03*
X146500000Y-109600000D03*
X147000000Y-109600000D03*
X147500000Y-109600000D03*
X148000000Y-109600000D03*
X148500000Y-109600000D03*
X149000000Y-109600000D03*
X149500000Y-109600000D03*
X150000000Y-109600000D03*
X150500000Y-109600000D03*
X151000000Y-109600000D03*
X151500000Y-109600000D03*
X152000000Y-109600000D03*
X152500000Y-109600000D03*
X153000000Y-109600000D03*
X153500000Y-109600000D03*
X154000000Y-109600000D03*
X154500000Y-109600000D03*
X155000000Y-109600000D03*
X155500000Y-109600000D03*
X156000000Y-109600000D03*
X156500000Y-109600000D03*
X157000000Y-109600000D03*
X157500000Y-109600000D03*
X158000000Y-109600000D03*
D16*
X159912500Y-107687500D03*
X159912500Y-107187500D03*
X159912500Y-106687500D03*
X159912500Y-106187500D03*
X159912500Y-105687500D03*
X159912500Y-105187500D03*
X159912500Y-104687500D03*
X159912500Y-104187500D03*
X159912500Y-103687500D03*
X159912500Y-103187500D03*
X159912500Y-102687500D03*
X159912500Y-102187500D03*
X159912500Y-101687500D03*
X159912500Y-101187500D03*
X159912500Y-100687500D03*
X159912500Y-100187500D03*
X159912500Y-99687500D03*
X159912500Y-99187500D03*
X159912500Y-98687500D03*
X159912500Y-98187500D03*
X159912500Y-97687500D03*
X159912500Y-97187500D03*
X159912500Y-96687500D03*
X159912500Y-96187500D03*
X159912500Y-95687500D03*
X159912500Y-95187500D03*
X159912500Y-94687500D03*
X159912500Y-94187500D03*
X159912500Y-93687500D03*
X159912500Y-93187500D03*
X159912500Y-92687500D03*
X159912500Y-92187500D03*
X159912500Y-91687500D03*
X159912500Y-91187500D03*
X159912500Y-90687500D03*
X159912500Y-90187500D03*
D17*
X158000000Y-88275000D03*
X157500000Y-88275000D03*
X157000000Y-88275000D03*
X156500000Y-88275000D03*
X156000000Y-88275000D03*
X155500000Y-88275000D03*
X155000000Y-88275000D03*
X154500000Y-88275000D03*
X154000000Y-88275000D03*
X153500000Y-88275000D03*
X153000000Y-88275000D03*
X152500000Y-88275000D03*
X152000000Y-88275000D03*
X151500000Y-88275000D03*
X151000000Y-88275000D03*
X150500000Y-88275000D03*
X150000000Y-88275000D03*
X149500000Y-88275000D03*
X149000000Y-88275000D03*
X148500000Y-88275000D03*
X148000000Y-88275000D03*
X147500000Y-88275000D03*
X147000000Y-88275000D03*
X146500000Y-88275000D03*
X146000000Y-88275000D03*
X145500000Y-88275000D03*
X145000000Y-88275000D03*
X144500000Y-88275000D03*
X144000000Y-88275000D03*
X143500000Y-88275000D03*
X143000000Y-88275000D03*
X142500000Y-88275000D03*
X142000000Y-88275000D03*
X141500000Y-88275000D03*
X141000000Y-88275000D03*
X140500000Y-88275000D03*
%TD*%
D18*
%TO.C,R16*%
X201424840Y-69421000D03*
X201424840Y-71199000D03*
%TD*%
%TO.C,R79*%
X133855500Y-66211000D03*
X133855500Y-67989000D03*
%TD*%
D19*
%TO.C,C58*%
X99492000Y-74710000D03*
X100508000Y-74710000D03*
%TD*%
D18*
%TO.C,R69*%
X164539000Y-87687500D03*
X162761000Y-87687500D03*
%TD*%
D20*
%TO.C,D4*%
X227999412Y-109814754D03*
X231799412Y-109814754D03*
%TD*%
D18*
%TO.C,R75*%
X160450000Y-82598500D03*
X160450000Y-84376500D03*
%TD*%
D21*
%TO.C,Y2*%
X150800000Y-124706981D03*
X154900000Y-124706981D03*
%TD*%
D22*
%TO.C,C39*%
X135650000Y-101508000D03*
X135650000Y-100492000D03*
%TD*%
%TO.C,C38*%
X135650000Y-96900000D03*
X135650000Y-95884000D03*
%TD*%
D19*
%TO.C,C2*%
X153558000Y-127496981D03*
X152542000Y-127496981D03*
%TD*%
%TO.C,C56*%
X99400000Y-114110000D03*
X100416000Y-114110000D03*
%TD*%
%TO.C,C63*%
X99492000Y-72630000D03*
X100508000Y-72630000D03*
%TD*%
D18*
%TO.C,R9*%
X207674840Y-69421000D03*
X207674840Y-71199000D03*
%TD*%
%TO.C,R17*%
X211674840Y-69421000D03*
X211674840Y-71199000D03*
%TD*%
D23*
%TO.C,L4*%
X227616000Y-122000000D03*
X225584000Y-122000000D03*
%TD*%
D24*
%TO.C,Q5*%
X207117440Y-101974960D03*
X207117440Y-100072500D03*
X204907640Y-101027540D03*
%TD*%
D18*
%TO.C,R73*%
X131855500Y-66211000D03*
X131855500Y-67989000D03*
%TD*%
%TO.C,R68*%
X164539000Y-91287500D03*
X162761000Y-91287500D03*
%TD*%
%TO.C,R35*%
X138650000Y-118022000D03*
X138650000Y-119800000D03*
%TD*%
%TO.C,C66*%
X216911000Y-96000000D03*
X218689000Y-96000000D03*
%TD*%
%TO.C,R66*%
X167911000Y-104500000D03*
X169689000Y-104500000D03*
%TD*%
%TO.C,R51*%
X223600000Y-142889000D03*
X223600000Y-141111000D03*
%TD*%
D19*
%TO.C,C15*%
X171542000Y-99537500D03*
X172558000Y-99537500D03*
%TD*%
D23*
%TO.C,L3*%
X227816000Y-93200000D03*
X225784000Y-93200000D03*
%TD*%
D18*
%TO.C,C27*%
X222600000Y-109800000D03*
X222600000Y-111578000D03*
%TD*%
%TO.C,C20*%
X183289000Y-86400000D03*
X181511000Y-86400000D03*
%TD*%
%TO.C,R38*%
X149850000Y-119706981D03*
X149850000Y-117928981D03*
%TD*%
D19*
%TO.C,C62*%
X99400000Y-124510000D03*
X100416000Y-124510000D03*
%TD*%
D18*
%TO.C,R32*%
X221924840Y-67449000D03*
X221924840Y-65671000D03*
%TD*%
%TO.C,C12*%
X174450000Y-79428000D03*
X174450000Y-77650000D03*
%TD*%
%TO.C,R20*%
X178900000Y-70111000D03*
X178900000Y-71889000D03*
%TD*%
%TO.C,R86*%
X214489000Y-93600000D03*
X212711000Y-93600000D03*
%TD*%
D25*
%TO.C,U9*%
X183150000Y-77700000D03*
X182500000Y-77700000D03*
X181850000Y-77700000D03*
X181200000Y-77700000D03*
X180550000Y-77700000D03*
X179900000Y-77700000D03*
X179250000Y-77700000D03*
X178600000Y-77700000D03*
X177950000Y-77700000D03*
X177300000Y-77700000D03*
X177300000Y-83425000D03*
X177950000Y-83425000D03*
X178600000Y-83425000D03*
X179250000Y-83425000D03*
X179900000Y-83425000D03*
X180550000Y-83425000D03*
X181200000Y-83425000D03*
X181850000Y-83425000D03*
X182500000Y-83425000D03*
X183150000Y-83425000D03*
%TD*%
D18*
%TO.C,C26*%
X218211000Y-113939000D03*
X219989000Y-113939000D03*
%TD*%
D19*
%TO.C,C3*%
X230494800Y-129044600D03*
X231510800Y-129044600D03*
%TD*%
D18*
%TO.C,R80*%
X144050000Y-118022000D03*
X144050000Y-119800000D03*
%TD*%
%TO.C,R58*%
X135539000Y-107487500D03*
X133761000Y-107487500D03*
%TD*%
D20*
%TO.C,FET2*%
X150961040Y-67726440D03*
X152863500Y-67726440D03*
X151908460Y-65516640D03*
%TD*%
D18*
%TO.C,R13*%
X209674840Y-69421000D03*
X209674840Y-71199000D03*
%TD*%
%TO.C,R70*%
X164539000Y-89487500D03*
X162761000Y-89487500D03*
%TD*%
D26*
%TO.C,L2*%
X143800000Y-54584000D03*
X143800000Y-56616000D03*
%TD*%
D24*
%TO.C,D3*%
X110400000Y-57700000D03*
X110400000Y-53900000D03*
%TD*%
D18*
%TO.C,R72*%
X127655500Y-66211000D03*
X127655500Y-67989000D03*
%TD*%
D27*
%TO.C,U1*%
X100402500Y-71285000D03*
X100402500Y-70635000D03*
X100402500Y-69985000D03*
X100402500Y-69335000D03*
X100402500Y-68685000D03*
X100402500Y-68035000D03*
X100402500Y-67385000D03*
X100402500Y-66735000D03*
X100402500Y-66085000D03*
X100402500Y-65435000D03*
X100402500Y-64785000D03*
X100402500Y-64135000D03*
X94677500Y-64135000D03*
X94677500Y-64785000D03*
X94677500Y-65435000D03*
X94677500Y-66085000D03*
X94677500Y-66735000D03*
X94677500Y-67385000D03*
X94677500Y-68035000D03*
X94677500Y-68685000D03*
X94677500Y-69335000D03*
X94677500Y-69985000D03*
X94677500Y-70635000D03*
X94677500Y-71285000D03*
%TD*%
D18*
%TO.C,C21*%
X179089000Y-86400000D03*
X177311000Y-86400000D03*
%TD*%
D19*
%TO.C,C52*%
X95708000Y-112910000D03*
X94692000Y-112910000D03*
%TD*%
D18*
%TO.C,C16*%
X179089000Y-88200000D03*
X177311000Y-88200000D03*
%TD*%
%TO.C,C13*%
X172500000Y-79489000D03*
X172500000Y-77711000D03*
%TD*%
%TO.C,R2*%
X195424840Y-65671000D03*
X195424840Y-67449000D03*
%TD*%
D28*
%TO.C,U11*%
X94677500Y-136340000D03*
X94677500Y-136990000D03*
X94677500Y-137640000D03*
X94677500Y-138290000D03*
X94677500Y-138940000D03*
X94677500Y-139590000D03*
X94677500Y-140240000D03*
X94677500Y-140890000D03*
X94677500Y-141540000D03*
X94677500Y-142190000D03*
X94677500Y-142840000D03*
X94677500Y-143490000D03*
X100402500Y-143490000D03*
X100402500Y-142840000D03*
X100402500Y-142190000D03*
X100402500Y-141540000D03*
X100402500Y-140890000D03*
X100402500Y-140240000D03*
X100402500Y-139590000D03*
X100402500Y-138940000D03*
X100402500Y-138290000D03*
X100402500Y-137640000D03*
X100402500Y-136990000D03*
X100402500Y-136340000D03*
%TD*%
D18*
%TO.C,R76*%
X125655500Y-66211000D03*
X125655500Y-67989000D03*
%TD*%
%TO.C,R8*%
X197424840Y-69421000D03*
X197424840Y-71199000D03*
%TD*%
%TO.C,R5*%
X205674840Y-69421000D03*
X205674840Y-71199000D03*
%TD*%
D15*
%TO.C,U8*%
X227420000Y-117100000D03*
X227420000Y-116600000D03*
X227420000Y-116100000D03*
X225800000Y-116100000D03*
X225800000Y-116600000D03*
X225800000Y-117100000D03*
%TD*%
D28*
%TO.C,U10*%
X94677500Y-125815000D03*
X94677500Y-126465000D03*
X94677500Y-127115000D03*
X94677500Y-127765000D03*
X94677500Y-128415000D03*
X94677500Y-129065000D03*
X94677500Y-129715000D03*
X94677500Y-130365000D03*
X94677500Y-131015000D03*
X94677500Y-131665000D03*
X94677500Y-132315000D03*
X94677500Y-132965000D03*
X100402500Y-132965000D03*
X100402500Y-132315000D03*
X100402500Y-131665000D03*
X100402500Y-131015000D03*
X100402500Y-130365000D03*
X100402500Y-129715000D03*
X100402500Y-129065000D03*
X100402500Y-128415000D03*
X100402500Y-127765000D03*
X100402500Y-127115000D03*
X100402500Y-126465000D03*
X100402500Y-125815000D03*
%TD*%
D18*
%TO.C,R46*%
X161111000Y-67708000D03*
X161111000Y-65930000D03*
%TD*%
%TO.C,R28*%
X217924840Y-65671000D03*
X217924840Y-67449000D03*
%TD*%
D19*
%TO.C,C60*%
X99400000Y-135110000D03*
X100416000Y-135110000D03*
%TD*%
D29*
%TO.C,J3*%
X195340000Y-83800000D03*
X195340000Y-78750000D03*
X197880000Y-83800000D03*
X197880000Y-78750000D03*
X200420000Y-83800000D03*
X200420000Y-78750000D03*
X202960000Y-83800000D03*
X202960000Y-78750000D03*
X205500000Y-83800000D03*
X205500000Y-78750000D03*
X208040000Y-83800000D03*
X208040000Y-78750000D03*
X210580000Y-83800000D03*
X210580000Y-78750000D03*
X213120000Y-83800000D03*
X213120000Y-78750000D03*
X215660000Y-83800000D03*
X215660000Y-78750000D03*
X218200000Y-83800000D03*
X218200000Y-78750000D03*
X220740000Y-83800000D03*
X220740000Y-78750000D03*
X223280000Y-83800000D03*
X223280000Y-78750000D03*
X225820000Y-83800000D03*
X225820000Y-78750000D03*
X228360000Y-83800000D03*
X228360000Y-78750000D03*
X230900000Y-83800000D03*
X230900000Y-78750000D03*
X233440000Y-83800000D03*
X233440000Y-78750000D03*
%TD*%
D28*
%TO.C,U16*%
X94677500Y-115335000D03*
X94677500Y-115985000D03*
X94677500Y-116635000D03*
X94677500Y-117285000D03*
X94677500Y-117935000D03*
X94677500Y-118585000D03*
X94677500Y-119235000D03*
X94677500Y-119885000D03*
X94677500Y-120535000D03*
X94677500Y-121185000D03*
X94677500Y-121835000D03*
X94677500Y-122485000D03*
X100402500Y-122485000D03*
X100402500Y-121835000D03*
X100402500Y-121185000D03*
X100402500Y-120535000D03*
X100402500Y-119885000D03*
X100402500Y-119235000D03*
X100402500Y-118585000D03*
X100402500Y-117935000D03*
X100402500Y-117285000D03*
X100402500Y-116635000D03*
X100402500Y-115985000D03*
X100402500Y-115335000D03*
%TD*%
D18*
%TO.C,C17*%
X181511000Y-75200000D03*
X183289000Y-75200000D03*
%TD*%
%TO.C,R65*%
X155100000Y-114111000D03*
X155100000Y-115889000D03*
%TD*%
D20*
%TO.C,D5*%
X228003148Y-105193702D03*
X231803148Y-105193702D03*
%TD*%
D24*
%TO.C,U3*%
X231994800Y-132794600D03*
X231994800Y-130894600D03*
X229794800Y-131844600D03*
%TD*%
D18*
%TO.C,R78*%
X131966500Y-69900000D03*
X133744500Y-69900000D03*
%TD*%
%TO.C,R18*%
X227499000Y-118527600D03*
X225721000Y-118527600D03*
%TD*%
%TO.C,R11*%
X209674840Y-67449000D03*
X209674840Y-65671000D03*
%TD*%
D30*
%TO.C,U12*%
X213460000Y-98275000D03*
X213460000Y-96975000D03*
X212160000Y-98275000D03*
X212160000Y-96975000D03*
D31*
X214747500Y-98875000D03*
X214747500Y-98375000D03*
X214747500Y-97875000D03*
X214747500Y-97375000D03*
X214747500Y-96875000D03*
X214747500Y-96375000D03*
D32*
X214060000Y-95687500D03*
X213560000Y-95687500D03*
X213060000Y-95687500D03*
X212560000Y-95687500D03*
X212060000Y-95687500D03*
X211560000Y-95687500D03*
D31*
X210872500Y-96375000D03*
X210872500Y-96875000D03*
X210872500Y-97375000D03*
X210872500Y-97875000D03*
X210872500Y-98375000D03*
X210872500Y-98875000D03*
D32*
X211560000Y-99562500D03*
X212060000Y-99562500D03*
X212560000Y-99562500D03*
X213060000Y-99562500D03*
X213560000Y-99562500D03*
X214060000Y-99562500D03*
%TD*%
D18*
%TO.C,C29*%
X116798500Y-89102008D03*
X118576500Y-89102008D03*
%TD*%
%TO.C,C14*%
X183289000Y-88200000D03*
X181511000Y-88200000D03*
%TD*%
%TO.C,R22*%
X180900000Y-70111000D03*
X180900000Y-71889000D03*
%TD*%
D23*
%TO.C,C18*%
X177800000Y-137184000D03*
X177800000Y-139216000D03*
%TD*%
D18*
%TO.C,C25*%
X210155000Y-140701000D03*
X210155000Y-142479000D03*
%TD*%
%TO.C,R6*%
X197424840Y-65671000D03*
X197424840Y-67449000D03*
%TD*%
%TO.C,R49*%
X157400000Y-114134966D03*
X157400000Y-115912966D03*
%TD*%
%TO.C,R85*%
X211089000Y-102600000D03*
X209311000Y-102600000D03*
%TD*%
%TO.C,R44*%
X159111000Y-65930000D03*
X159111000Y-67708000D03*
%TD*%
%TO.C,R3*%
X205674840Y-65671000D03*
X205674840Y-67449000D03*
%TD*%
%TO.C,R45*%
X148111000Y-65930000D03*
X148111000Y-67708000D03*
%TD*%
D19*
%TO.C,C42*%
X143416000Y-112137500D03*
X142400000Y-112137500D03*
%TD*%
D22*
%TO.C,C35*%
X171300000Y-103892000D03*
X171300000Y-104908000D03*
%TD*%
D19*
%TO.C,C51*%
X99400000Y-112910000D03*
X100416000Y-112910000D03*
%TD*%
D18*
%TO.C,R34*%
X210578000Y-132600000D03*
X208800000Y-132600000D03*
%TD*%
%TO.C,R14*%
X201424840Y-67449000D03*
X201424840Y-65671000D03*
%TD*%
D22*
%TO.C,C45*%
X162450000Y-99137500D03*
X162450000Y-100153500D03*
%TD*%
D18*
%TO.C,C32*%
X118576500Y-109902008D03*
X116798500Y-109902008D03*
%TD*%
%TO.C,R82*%
X214938000Y-102600000D03*
X213160000Y-102600000D03*
%TD*%
%TO.C,R31*%
X219924840Y-69421000D03*
X219924840Y-71199000D03*
%TD*%
%TO.C,R26*%
X215924840Y-65671000D03*
X215924840Y-67449000D03*
%TD*%
D20*
%TO.C,FET1*%
X154361040Y-67726440D03*
X156263500Y-67726440D03*
X155308460Y-65516640D03*
%TD*%
D18*
%TO.C,R56*%
X164889000Y-108900000D03*
X163111000Y-108900000D03*
%TD*%
D28*
%TO.C,U15*%
X94677500Y-52540000D03*
X94677500Y-53190000D03*
X94677500Y-53840000D03*
X94677500Y-54490000D03*
X94677500Y-55140000D03*
X94677500Y-55790000D03*
X94677500Y-56440000D03*
X94677500Y-57090000D03*
X94677500Y-57740000D03*
X94677500Y-58390000D03*
X94677500Y-59040000D03*
X94677500Y-59690000D03*
X100402500Y-59690000D03*
X100402500Y-59040000D03*
X100402500Y-58390000D03*
X100402500Y-57740000D03*
X100402500Y-57090000D03*
X100402500Y-56440000D03*
X100402500Y-55790000D03*
X100402500Y-55140000D03*
X100402500Y-54490000D03*
X100402500Y-53840000D03*
X100402500Y-53190000D03*
X100402500Y-52540000D03*
%TD*%
D19*
%TO.C,C48*%
X150634000Y-84737500D03*
X151650000Y-84737500D03*
%TD*%
D33*
%TO.C,POWER1*%
X221600000Y-142762000D03*
X221600000Y-141238000D03*
%TD*%
D18*
%TO.C,R64*%
X142250000Y-118022000D03*
X142250000Y-119800000D03*
%TD*%
D22*
%TO.C,C28*%
X135650000Y-93737500D03*
X135650000Y-92721500D03*
%TD*%
D18*
%TO.C,R48*%
X161000000Y-115889000D03*
X161000000Y-114111000D03*
%TD*%
%TO.C,R25*%
X213674840Y-67449000D03*
X213674840Y-65671000D03*
%TD*%
D19*
%TO.C,C1*%
X152450000Y-122096981D03*
X153466000Y-122096981D03*
%TD*%
%TO.C,C30*%
X117179500Y-87502008D03*
X118195500Y-87502008D03*
%TD*%
%TO.C,C59*%
X95600000Y-135110000D03*
X94584000Y-135110000D03*
%TD*%
D22*
%TO.C,C34*%
X147250000Y-114911481D03*
X147250000Y-115927481D03*
%TD*%
D18*
%TO.C,R23*%
X158450000Y-84376500D03*
X158450000Y-82598500D03*
%TD*%
%TO.C,R36*%
X223924840Y-67449000D03*
X223924840Y-65671000D03*
%TD*%
D19*
%TO.C,C57*%
X95708000Y-74710000D03*
X94692000Y-74710000D03*
%TD*%
D22*
%TO.C,C40*%
X135650000Y-105937500D03*
X135650000Y-104921500D03*
%TD*%
D18*
%TO.C,R59*%
X164889000Y-110700000D03*
X163111000Y-110700000D03*
%TD*%
%TO.C,C65*%
X216911000Y-94000000D03*
X218689000Y-94000000D03*
%TD*%
%TO.C,R7*%
X207674840Y-65671000D03*
X207674840Y-67449000D03*
%TD*%
%TO.C,R10*%
X199424840Y-67449000D03*
X199424840Y-65671000D03*
%TD*%
%TO.C,R63*%
X140450000Y-118022000D03*
X140450000Y-119800000D03*
%TD*%
D34*
%TO.C,U4*%
X111887500Y-91102008D03*
X111887500Y-91902008D03*
X111887500Y-92702008D03*
X111887500Y-93502008D03*
X111887500Y-94302008D03*
X111887500Y-95102008D03*
X111887500Y-95902008D03*
X111887500Y-96702008D03*
X111887500Y-97502008D03*
X111887500Y-98302008D03*
X111887500Y-99102008D03*
X111887500Y-99902008D03*
X111887500Y-100702008D03*
X111887500Y-101502008D03*
X111887500Y-102302008D03*
X111887500Y-103102008D03*
X111887500Y-103902008D03*
X111887500Y-104702008D03*
X111887500Y-105502008D03*
X111887500Y-106302008D03*
X111887500Y-107102008D03*
X111887500Y-107902008D03*
X123487500Y-107902008D03*
X123487500Y-107102008D03*
X123487500Y-106302008D03*
X123487500Y-105502008D03*
X123487500Y-104702008D03*
X123487500Y-103902008D03*
X123487500Y-103102008D03*
X123487500Y-102302008D03*
X123487500Y-101502008D03*
X123487500Y-100702008D03*
X123487500Y-99902008D03*
X123487500Y-99102008D03*
X123487500Y-98302008D03*
X123487500Y-97502008D03*
X123487500Y-96702008D03*
X123487500Y-95902008D03*
X123487500Y-95102008D03*
X123487500Y-94302008D03*
X123487500Y-93502008D03*
X123487500Y-92702008D03*
X123487500Y-91902008D03*
X123487500Y-91102008D03*
%TD*%
D18*
%TO.C,R39*%
X135539000Y-111087500D03*
X133761000Y-111087500D03*
%TD*%
%TO.C,R61*%
X172050000Y-97716500D03*
X172050000Y-95938500D03*
%TD*%
%TO.C,R24*%
X210556000Y-130800000D03*
X208778000Y-130800000D03*
%TD*%
%TO.C,C19*%
X177111000Y-75200000D03*
X178889000Y-75200000D03*
%TD*%
%TO.C,R77*%
X123655500Y-66211000D03*
X123655500Y-67989000D03*
%TD*%
D22*
%TO.C,C24*%
X208400000Y-141190000D03*
X208400000Y-142206000D03*
%TD*%
D18*
%TO.C,R55*%
X140450000Y-82687500D03*
X140450000Y-84465500D03*
%TD*%
D19*
%TO.C,C61*%
X95616000Y-124510000D03*
X94600000Y-124510000D03*
%TD*%
D18*
%TO.C,R62*%
X135539000Y-109287500D03*
X133761000Y-109287500D03*
%TD*%
%TO.C,R42*%
X159222000Y-64019000D03*
X161000000Y-64019000D03*
%TD*%
%TO.C,R74*%
X162450000Y-82598500D03*
X162450000Y-84376500D03*
%TD*%
%TO.C,R37*%
X150850000Y-114267981D03*
X150850000Y-116045981D03*
%TD*%
D19*
%TO.C,C43*%
X152708000Y-112200000D03*
X151692000Y-112200000D03*
%TD*%
D18*
%TO.C,R53*%
X145850000Y-119800000D03*
X145850000Y-118022000D03*
%TD*%
D22*
%TO.C,C46*%
X162450000Y-95200000D03*
X162450000Y-96216000D03*
%TD*%
D18*
%TO.C,R84*%
X227699000Y-96400000D03*
X225921000Y-96400000D03*
%TD*%
%TO.C,R15*%
X211674840Y-67449000D03*
X211674840Y-65671000D03*
%TD*%
%TO.C,R27*%
X215924840Y-69421000D03*
X215924840Y-71199000D03*
%TD*%
D23*
%TO.C,C22*%
X180200000Y-137184000D03*
X180200000Y-139216000D03*
%TD*%
D19*
%TO.C,C41*%
X141108000Y-112137500D03*
X140092000Y-112137500D03*
%TD*%
D18*
%TO.C,C10*%
X184789000Y-71000000D03*
X183011000Y-71000000D03*
%TD*%
D19*
%TO.C,C53*%
X95600000Y-51110000D03*
X94584000Y-51110000D03*
%TD*%
D18*
%TO.C,R30*%
X219924840Y-67449000D03*
X219924840Y-65671000D03*
%TD*%
%TO.C,R52*%
X231783800Y-134844600D03*
X230005800Y-134844600D03*
%TD*%
%TO.C,R83*%
X227689000Y-100400000D03*
X225911000Y-100400000D03*
%TD*%
%TO.C,C50*%
X144850000Y-82887500D03*
X146628000Y-82887500D03*
%TD*%
%TO.C,R67*%
X164539000Y-93087500D03*
X162761000Y-93087500D03*
%TD*%
D19*
%TO.C,C47*%
X155742000Y-84737500D03*
X156758000Y-84737500D03*
%TD*%
D18*
%TO.C,R50*%
X159200000Y-114111000D03*
X159200000Y-115889000D03*
%TD*%
%TO.C,R41*%
X155250000Y-121595981D03*
X155250000Y-119817981D03*
%TD*%
%TO.C,R43*%
X148000000Y-64019000D03*
X146222000Y-64019000D03*
%TD*%
%TO.C,R19*%
X227499000Y-114527600D03*
X225721000Y-114527600D03*
%TD*%
D26*
%TO.C,L1*%
X129655500Y-68516000D03*
X129655500Y-66484000D03*
%TD*%
D22*
%TO.C,C44*%
X162900000Y-103800000D03*
X162900000Y-104816000D03*
%TD*%
D35*
%TO.C,MICRO_SD1*%
X125805500Y-58650000D03*
X126905500Y-58650000D03*
X128005500Y-58650000D03*
X129105500Y-58650000D03*
X130205500Y-58650000D03*
X131305500Y-58650000D03*
X132405500Y-58650000D03*
X133505500Y-58650000D03*
X134605500Y-58650000D03*
D36*
X121105500Y-57770000D03*
D37*
X135905500Y-57770000D03*
D38*
X120205500Y-48170000D03*
X135905500Y-48170000D03*
%TD*%
D18*
%TO.C,R40*%
X135539000Y-112887500D03*
X133761000Y-112887500D03*
%TD*%
%TO.C,R4*%
X195424840Y-69421000D03*
X195424840Y-71199000D03*
%TD*%
%TO.C,R54*%
X148850000Y-116045981D03*
X148850000Y-114267981D03*
%TD*%
D39*
%TO.C,U14*%
X220375000Y-111689000D03*
X220375000Y-110739000D03*
X220375000Y-109789000D03*
X218100000Y-109789000D03*
X218100000Y-111689000D03*
%TD*%
D19*
%TO.C,C31*%
X118306500Y-111702008D03*
X117290500Y-111702008D03*
%TD*%
D18*
%TO.C,R57*%
X91889000Y-115000000D03*
X90111000Y-115000000D03*
%TD*%
D19*
%TO.C,C54*%
X99400000Y-51110000D03*
X100416000Y-51110000D03*
%TD*%
D22*
%TO.C,C4*%
X233605800Y-131244600D03*
X233605800Y-132260600D03*
%TD*%
D18*
%TO.C,R33*%
X221924840Y-69421000D03*
X221924840Y-71199000D03*
%TD*%
D27*
%TO.C,U17*%
X100402500Y-111690000D03*
X100402500Y-111040000D03*
X100402500Y-110390000D03*
X100402500Y-109740000D03*
X100402500Y-109090000D03*
X100402500Y-108440000D03*
X100402500Y-107790000D03*
X100402500Y-107140000D03*
X100402500Y-106490000D03*
X100402500Y-105840000D03*
X100402500Y-105190000D03*
X100402500Y-104540000D03*
X94677500Y-104540000D03*
X94677500Y-105190000D03*
X94677500Y-105840000D03*
X94677500Y-106490000D03*
X94677500Y-107140000D03*
X94677500Y-107790000D03*
X94677500Y-108440000D03*
X94677500Y-109090000D03*
X94677500Y-109740000D03*
X94677500Y-110390000D03*
X94677500Y-111040000D03*
X94677500Y-111690000D03*
%TD*%
D18*
%TO.C,R60*%
X167961000Y-101337500D03*
X169739000Y-101337500D03*
%TD*%
%TO.C,R12*%
X199424840Y-69421000D03*
X199424840Y-71199000D03*
%TD*%
D26*
%TO.C,C37*%
X121871500Y-63900000D03*
X119839500Y-63900000D03*
%TD*%
D19*
%TO.C,C55*%
X95708000Y-114110000D03*
X94692000Y-114110000D03*
%TD*%
D18*
%TO.C,R21*%
X203424840Y-67449000D03*
X203424840Y-65671000D03*
%TD*%
D40*
%TO.C,X1*%
X183400000Y-48400000D03*
X176000000Y-46400000D03*
D41*
X176000000Y-55800000D03*
%TD*%
D18*
%TO.C,R29*%
X217924840Y-69421000D03*
X217924840Y-71199000D03*
%TD*%
%TO.C,C9*%
X175011000Y-71000000D03*
X176789000Y-71000000D03*
%TD*%
D19*
%TO.C,C49*%
X145250000Y-84737500D03*
X146266000Y-84737500D03*
%TD*%
D23*
%TO.C,C23*%
X130800000Y-136984000D03*
X130800000Y-139016000D03*
%TD*%
D19*
%TO.C,C33*%
X171542000Y-94137500D03*
X172558000Y-94137500D03*
%TD*%
D18*
%TO.C,R47*%
X146111000Y-67708000D03*
X146111000Y-65930000D03*
%TD*%
%TO.C,R1*%
X136850000Y-118022000D03*
X136850000Y-119800000D03*
%TD*%
D22*
%TO.C,C36*%
X166300000Y-104908000D03*
X166300000Y-103892000D03*
%TD*%
D18*
%TO.C,R71*%
X135855500Y-66211000D03*
X135855500Y-67989000D03*
%TD*%
D19*
%TO.C,C64*%
X95708000Y-72630000D03*
X94692000Y-72630000D03*
%TD*%
D20*
%TO.C,Q4*%
X213259960Y-104317560D03*
X211357500Y-104317560D03*
X212312540Y-106527360D03*
%TD*%
D18*
%TO.C,C11*%
X185100000Y-79489000D03*
X185100000Y-77711000D03*
%TD*%
D42*
%TO.C,Y1*%
X168850000Y-94687500D03*
X168850000Y-98787500D03*
%TD*%
D28*
%TO.C,U13*%
X94677500Y-76090000D03*
X94677500Y-76740000D03*
X94677500Y-77390000D03*
X94677500Y-78040000D03*
X94677500Y-78690000D03*
X94677500Y-79340000D03*
X94677500Y-79990000D03*
X94677500Y-80640000D03*
X94677500Y-81290000D03*
X94677500Y-81940000D03*
X94677500Y-82590000D03*
X94677500Y-83240000D03*
X100402500Y-83240000D03*
X100402500Y-82590000D03*
X100402500Y-81940000D03*
X100402500Y-81290000D03*
X100402500Y-80640000D03*
X100402500Y-79990000D03*
X100402500Y-79340000D03*
X100402500Y-78690000D03*
X100402500Y-78040000D03*
X100402500Y-77390000D03*
X100402500Y-76740000D03*
X100402500Y-76090000D03*
%TD*%
M02*
