M48
; DRILL file {KiCad 9.0.0} date 2025-05-18T10:37:13+0200
; FORMAT={-:-/ absolute / metric / decimal}
; #@! TF.CreationDate,2025-05-18T10:37:13+02:00
; #@! TF.GenerationSoftware,Kicad,Pcbnew,9.0.0
; #@! TF.FileFunction,Plated,1,4,PTH
FMAT,2
METRIC
; #@! TA.AperFunction,Plated,PTH,ViaDrill
T1C0.300
; #@! TA.AperFunction,Plated,PTH,ViaDrill
T2C0.600
; #@! TA.AperFunction,Plated,PTH,ComponentDrill
T3C0.800
; #@! TA.AperFunction,Plated,PTH,ComponentDrill
T4C0.900
; #@! TA.AperFunction,Plated,PTH,ComponentDrill
T5C1.000
; #@! TA.AperFunction,Plated,PTH,ComponentDrill
T6C1.016
; #@! TA.AperFunction,Plated,PTH,ComponentDrill
T7C1.100
; #@! TA.AperFunction,Plated,PTH,ComponentDrill
T8C1.524
; #@! TA.AperFunction,Plated,PTH,ComponentDrill
T9C2.200
; #@! TA.AperFunction,Plated,PTH,ComponentDrill
T10C3.300
%
G90
G05
T1
X88.3Y-139.225
X88.3Y-140.575
X88.7Y-65.8
X88.7Y-69.6
X88.7Y-119.275
X88.7Y-121.005
X88.7Y-125.5
X88.9Y-142.0
X89.008Y-120.121
X89.177Y-137.925
X89.2Y-82.2
X89.25Y-78.1
X89.375Y-133.223
X89.391Y-126.175
X89.4Y-134.3
X89.6Y-143.3
X89.9Y-136.5
X89.925Y-77.1
X89.925Y-83.5
X90.05Y-132.588
X90.066Y-126.875
X90.208Y-117.862
X90.236Y-116.425
X90.725Y-131.931
X90.8Y-127.8
X90.9Y-121.7
X91.1Y-135.9
X91.275Y-107.8
X91.3Y-64.5
X91.453Y-129.407
X91.5Y-133.0
X91.62Y-119.547
X91.62Y-121.014
X91.8Y-116.6
X91.895Y-75.598
X91.9Y-118.6
X91.948Y-107.115
X91.991Y-108.465
X92.142Y-120.281
X92.2Y-67.2
X92.2Y-136.977
X92.278Y-128.288
X92.305Y-132.325
X92.316Y-129.775
X92.45Y-138.55
X92.575Y-117.9
X92.686Y-106.465
X92.7Y-76.0
X92.712Y-109.136
X92.716Y-57.115
X92.828Y-127.575
X93.1Y-63.3
X93.196Y-129.967
X93.2Y-131.5
X93.24Y-117.222
X93.3Y-57.8
X93.3Y-77.1
X93.3Y-78.0
X93.3Y-140.189
X93.339Y-109.898
X93.359Y-104.833
X93.361Y-105.79
X93.4Y-129.09
X93.515Y-126.949
X95.8Y-97.4
X95.868Y-129.625
X95.868Y-130.975
X95.9Y-80.0
X95.9Y-119.2
X96.053Y-137.262
X96.092Y-139.818
X96.378Y-138.101
X96.451Y-131.66
X96.463Y-138.998
X96.475Y-98.3
X96.6Y-130.3
X96.613Y-79.451
X96.926Y-99.929
X97.121Y-119.123
X97.377Y-101.5
X97.4Y-80.6
X97.514Y-100.611
X97.6Y-119.885
X97.794Y-118.525
X97.877Y-78.723
X98.343Y-120.616
X98.581Y-118.025
X98.609Y-121.476
X98.775Y-105.321
X98.775Y-106.221
X98.877Y-107.115
X99.048Y-117.225
X99.14Y-122.203
X101.6Y-69.3
X101.8Y-78.547
X101.8Y-79.898
X101.8Y-81.249
X101.8Y-82.6
X101.937Y-104.578
X102.122Y-103.697
X102.176Y-69.991
X102.236Y-68.625
X102.388Y-77.866
X102.395Y-79.222
X102.395Y-80.574
X102.5Y-82.0
X102.927Y-102.9
X103.378Y-95.998
X103.829Y-95.145
X104.28Y-94.271
X104.825Y-93.405
X105.5Y-92.6
X106.201Y-112.266
X106.773Y-113.075
X107.448Y-113.779
X107.78Y-126.751
X107.79Y-128.145
X108.123Y-114.5
X108.249Y-128.92
X108.375Y-126.076
X108.375Y-127.461
X108.574Y-120.676
X108.814Y-129.62
X108.85Y-79.987
X109.525Y-79.225
X109.653Y-131.9
X110.2Y-78.55
X110.328Y-133.318
X110.41Y-117.672
X110.41Y-123.525
X112.5Y-120.7
X112.55Y-132.7
X113.181Y-95.033
X113.182Y-93.473
X113.196Y-98.308
X113.2Y-96.7
X113.2Y-100.7
X113.2Y-103.102
X113.2Y-104.702
X113.225Y-131.225
X113.4Y-92.6
X113.602Y-97.505
X113.602Y-101.505
X113.612Y-95.823
X113.631Y-94.253
X113.7Y-103.902
X113.9Y-125.4
X114.946Y-100.154
X115.14Y-131.225
X115.7Y-105.502
X115.7Y-107.0
X116.2Y-94.5
X116.4Y-129.874
X116.9Y-95.1
X117.68Y-132.025
X117.7Y-94.5
X118.5Y-95.1
X118.826Y-114.5
X118.9Y-124.2
X119.0Y-133.4
X119.232Y-95.623
X119.5Y-118.725
X119.5Y-122.8
X120.2Y-113.1
X120.375Y-107.025
X120.375Y-110.5
X120.4Y-117.925
X120.4Y-132.5
X120.8Y-113.8
X121.05Y-107.926
X121.05Y-109.6
X121.1Y-86.4
X121.255Y-110.687
X121.559Y-135.1
X121.7Y-85.725
X121.725Y-108.6
X122.3Y-85.0
X122.3Y-109.3
X122.34Y-129.51
X122.938Y-128.811
X123.683Y-128.136
X124.385Y-127.444
X124.96Y-126.751
X125.525Y-113.2
X125.525Y-126.05
X125.655Y-104.431
X125.67Y-105.425
X125.845Y-101.501
X126.2Y-113.8
X126.2Y-129.5
X126.301Y-107.888
X126.6Y-101.0
X126.9Y-103.502
X127.0Y-56.0
X127.005Y-128.825
X127.005Y-114.451
X127.2Y-107.925
X127.4Y-100.309
X127.9Y-128.125
X127.901Y-114.902
X128.0Y-56.0
X128.032Y-99.634
X128.077Y-92.777
X128.1Y-107.925
X128.2Y-101.013
X128.2Y-103.502
X128.699Y-98.925
X128.716Y-127.425
X128.744Y-115.353
X129.0Y-107.925
X129.314Y-98.177
X129.548Y-126.725
X129.562Y-115.804
X130.237Y-116.472
X130.261Y-126.05
X130.344Y-113.101
X130.8Y-72.6
X131.046Y-97.501
X131.099Y-116.73
X131.1Y-125.375
X131.325Y-107.4
X131.8Y-135.1
X131.939Y-117.177
X132.0Y-72.0
X132.0Y-96.975
X132.675Y-109.3
X132.675Y-111.1
X132.675Y-112.9
X132.706Y-96.416
X132.8Y-102.152
X132.8Y-106.3
X134.0Y-120.725
X134.0Y-124.875
X134.8Y-118.725
X134.8Y-121.4
X135.5Y-119.5
X135.5Y-120.5
X135.5Y-130.225
X136.73Y-130.925
X138.0Y-132.325
X139.27Y-134.425
X139.878Y-107.647
X140.28Y-96.853
X140.4Y-122.85
X140.452Y-98.862
X140.5Y-133.7
X140.511Y-106.072
X140.671Y-107.025
X140.957Y-89.667
X140.986Y-96.295
X141.0Y-91.018
X141.028Y-97.352
X141.04Y-92.399
X141.106Y-105.397
X141.351Y-98.193
X141.4Y-54.725
X141.4Y-71.4
X141.4Y-99.2
X141.562Y-95.603
X141.6Y-91.694
X141.622Y-90.368
X141.81Y-132.3
X141.91Y-92.629
X142.0Y-55.4
X142.0Y-70.6
X142.251Y-101.025
X142.265Y-99.447
X142.3Y-123.525
X142.613Y-93.19
X142.691Y-100.24
X142.739Y-105.94
X142.856Y-94.057
X142.925Y-102.8
X143.0Y-101.7
X143.1Y-129.525
X143.31Y-105.244
X143.524Y-103.475
X143.542Y-104.375
X144.1Y-124.3
X144.206Y-107.858
X145.149Y-107.87
X145.576Y-128.8
X145.976Y-108.312
X146.89Y-128.1
X147.325Y-122.1
X147.696Y-89.551
X147.7Y-74.325
X147.7Y-86.9
X148.0Y-120.2
X148.116Y-127.4
X148.375Y-75.7
X148.375Y-86.264
X148.381Y-90.135
X148.915Y-74.98
X149.075Y-89.562
X149.1Y-86.9
X149.43Y-129.5
X150.744Y-128.856
X151.775Y-120.8
X151.97Y-129.525
X152.1Y-116.2
X153.0Y-70.0
X153.2Y-135.1
X153.372Y-108.196
X154.125Y-107.317
X154.272Y-108.205
X154.45Y-106.441
X154.51Y-133.0
X155.1Y-117.1
X155.115Y-105.701
X155.12Y-104.79
X155.241Y-103.899
X156.237Y-103.94
X156.6Y-119.4
X156.726Y-96.99
X156.726Y-97.89
X156.726Y-98.79
X156.726Y-99.69
X156.819Y-100.586
X156.977Y-96.126
X157.207Y-103.978
X157.564Y-91.534
X157.798Y-95.732
X158.092Y-103.817
X158.4Y-80.7
X158.4Y-91.2
X158.4Y-93.6
X158.4Y-118.725
X158.658Y-95.466
X158.732Y-111.177
X160.4Y-80.7
X161.558Y-105.012
X162.4Y-80.7
X164.0Y-107.9
X164.35Y-117.282
X165.025Y-116.555
X165.625Y-115.668
X165.8Y-87.688
X165.874Y-82.2
X165.874Y-83.206
X166.0Y-91.2
X166.0Y-92.6
X166.0Y-109.7
X166.0Y-94.2
X166.3Y-108.8
X166.3Y-110.7
X166.32Y-114.781
X167.0Y-90.472
X167.025Y-114.221
X167.151Y-85.106
X167.2Y-70.001
X167.7Y-107.1
X167.725Y-113.384
X167.8Y-70.725
X167.823Y-85.777
X167.925Y-82.195
X167.925Y-112.4
X168.6Y-71.4
X168.6Y-83.0
X168.6Y-111.6
X169.348Y-84.756
X169.4Y-72.077
X170.2Y-72.8
X170.2Y-85.6
X170.8Y-116.66
X170.8Y-119.2
X170.8Y-121.74
X178.1Y-84.8
X178.575Y-76.202
X178.6Y-81.0
X179.4Y-81.675
X179.6Y-79.4
X179.8Y-73.6
X179.951Y-85.262
X180.2Y-92.475
X180.4Y-76.0
X181.0Y-91.8
X181.01Y-128.79
X181.609Y-90.414
X181.739Y-84.544
X181.754Y-127.846
X182.2Y-140.2
X182.451Y-127.2
X182.475Y-91.114
X183.725Y-96.8
X184.4Y-93.2
X184.6Y-104.0
X184.6Y-107.2
X185.4Y-85.4
X186.125Y-81.8
X186.8Y-81.0
X187.6Y-118.0
X188.0Y-122.2
X188.4Y-118.675
X189.2Y-119.326
X189.8Y-137.2
X189.8Y-138.4
X190.0Y-120.001
X192.305Y-89.4
X193.6Y-90.0
X194.845Y-90.8
X196.115Y-91.2
X197.4Y-88.4
X198.649Y-88.075
X199.929Y-88.526
X202.465Y-104.0
X203.6Y-107.325
X203.875Y-104.0
X204.0Y-140.147
X204.41Y-120.8
X204.5Y-107.325
X206.925Y-107.325
X207.8Y-128.2
X208.0Y-124.0
X208.0Y-125.4
X208.04Y-88.526
X208.8Y-101.0
X209.0Y-122.8
X210.0Y-110.4
X210.0Y-125.4
X210.2Y-101.0
X210.58Y-88.075
X210.8Y-109.6
X210.8Y-124.725
X211.6Y-108.125
X211.6Y-123.8
X211.8Y-101.0
X212.4Y-108.8
X212.4Y-123.2
X213.0Y-87.8
X213.2Y-122.4
X213.556Y-94.638
X214.0Y-101.0
X214.6Y-125.4
X215.4Y-124.6
X215.6Y-91.074
X216.4Y-123.875
X217.2Y-123.2
X218.2Y-90.6
X218.85Y-120.312
X219.525Y-119.677
X219.6Y-97.22
X220.125Y-119.0
X220.4Y-89.8
X220.8Y-118.2
X220.9Y-98.53
X222.4Y-122.4
X223.2Y-89.2
X224.6Y-116.6
X224.8Y-98.4
X228.6Y-116.6
X228.8Y-98.4
T2
X93.6Y-51.1
X93.6Y-124.5
X93.6Y-135.1
X93.7Y-72.6
X93.7Y-74.7
X93.7Y-112.9
X93.7Y-114.1
X94.7Y-60.6
X94.7Y-63.3
X94.7Y-84.1
X94.7Y-103.7
X94.7Y-123.2
X94.7Y-133.8
X94.7Y-144.4
X96.6Y-51.1
X96.6Y-124.5
X96.6Y-135.1
X96.7Y-72.6
X96.7Y-74.7
X96.7Y-112.9
X96.7Y-114.1
X98.4Y-112.9
X98.4Y-124.5
X98.4Y-135.1
X98.5Y-51.1
X98.5Y-72.6
X98.5Y-74.7
X98.5Y-114.1
X100.4Y-60.5
X100.4Y-63.3
X100.4Y-84.1
X100.4Y-103.7
X100.4Y-123.1
X100.4Y-133.8
X100.4Y-144.3
X101.39Y-112.91
X101.39Y-114.11
X101.4Y-51.1
X101.4Y-124.5
X101.4Y-135.1
X101.5Y-72.6
X101.5Y-74.7
X110.4Y-46.2
X110.4Y-59.4
X110.487Y-99.125
X114.156Y-98.972
X115.3Y-89.1
X116.8Y-108.7
X118.2Y-64.0
X118.6Y-108.5
X119.4Y-57.8
X120.2Y-89.1
X122.2Y-68.0
X125.0Y-99.9
X125.778Y-99.122
X129.6Y-70.0
X131.2Y-56.6
X133.9Y-93.6
X134.6Y-95.746
X134.6Y-96.947
X134.6Y-100.479
X134.6Y-101.579
X134.6Y-104.8
X134.6Y-106.0
X134.723Y-92.707
X135.2Y-69.8
X137.6Y-57.8
X140.0Y-113.0
X140.4Y-81.4
X141.1Y-113.0
X142.308Y-113.0
X143.508Y-113.0
X143.8Y-58.6
X144.8Y-65.9
X144.8Y-81.4
X146.0Y-121.0
X146.2Y-61.4
X146.6Y-81.4
X147.241Y-117.0
X148.8Y-117.0
X149.8Y-121.0
X150.324Y-59.4
X150.6Y-83.6
X150.961Y-69.0
X151.8Y-83.6
X151.824Y-113.113
X152.4Y-126.2
X152.6Y-113.9
X153.4Y-121.2
X154.361Y-69.0
X155.5Y-83.6
X156.6Y-83.6
X156.6Y-121.6
X157.4Y-117.2
X158.5Y-100.7
X158.5Y-102.2
X159.2Y-117.2
X160.4Y-89.0
X161.0Y-61.4
X161.0Y-117.2
X162.2Y-65.93
X163.4Y-95.0
X163.4Y-96.2
X163.4Y-99.0
X163.4Y-100.1
X163.85Y-103.862
X163.85Y-104.963
X165.3Y-104.9
X170.996Y-77.712
X171.0Y-79.497
X172.3Y-104.9
X173.4Y-46.4
X173.4Y-94.2
X173.4Y-99.6
X173.8Y-71.0
X175.8Y-75.2
X177.307Y-89.4
X179.715Y-62.4
X181.516Y-89.418
X181.8Y-79.2
X183.292Y-89.395
X186.0Y-71.0
X186.761Y-77.712
X186.779Y-79.483
X189.4Y-142.4
X193.8Y-65.8
X198.25Y-132.183
X203.4Y-68.8
X205.6Y-64.2
X211.4Y-140.8
X211.4Y-142.4
X213.8Y-68.8
X216.0Y-64.2
X216.6Y-110.738
X216.604Y-113.946
X216.911Y-93.0
X217.1Y-99.2
X220.2Y-94.0
X221.6Y-113.8
X221.6Y-139.2
X222.6Y-112.8
X223.6Y-139.8
X224.0Y-68.8
X224.0Y-93.2
X224.0Y-96.4
X224.0Y-100.4
X224.0Y-122.0
X224.302Y-118.524
X224.325Y-114.521
X225.8Y-74.9
X225.8Y-105.2
X225.8Y-109.8
X228.2Y-131.8
X229.6Y-95.2
X229.6Y-101.6
X229.8Y-113.4
X229.8Y-119.8
X230.9Y-88.0
X233.05Y-96.718
X233.063Y-100.093
X233.2Y-114.8
X233.2Y-118.2
X234.0Y-109.8
X234.07Y-104.953
X234.8Y-130.8
X238.0Y-81.2
T4
X204.206Y-54.81
X205.349Y-52.27
X205.349Y-57.35
X206.492Y-54.81
X207.635Y-52.27
X207.635Y-57.35
X208.778Y-54.81
X209.921Y-52.27
X209.921Y-57.35
X211.064Y-54.81
X212.207Y-52.27
X212.207Y-57.35
X213.35Y-54.81
X214.493Y-52.27
X214.493Y-57.35
T5
X83.5Y-45.48
X83.5Y-48.02
X83.5Y-50.56
X83.5Y-53.1
X83.5Y-55.64
X83.5Y-58.18
X83.5Y-60.72
X83.5Y-63.26
X83.5Y-65.8
X83.5Y-68.34
X83.5Y-70.88
X83.5Y-73.42
X83.5Y-75.96
X83.5Y-78.5
X83.5Y-81.04
X83.5Y-83.58
X83.5Y-86.12
X83.5Y-88.66
X83.5Y-91.2
X83.5Y-93.74
X83.5Y-96.28
X83.5Y-98.82
X83.5Y-101.36
X83.5Y-103.9
X83.5Y-106.44
X83.5Y-108.98
X83.5Y-111.52
X83.5Y-114.06
X83.5Y-116.6
X83.5Y-119.14
X83.5Y-121.68
X83.5Y-124.22
X83.5Y-126.76
X83.5Y-129.3
X83.5Y-131.84
X83.5Y-134.38
X83.5Y-136.92
X83.5Y-139.46
X83.5Y-142.0
X83.5Y-144.54
X86.04Y-45.48
X86.04Y-48.02
X86.04Y-50.56
X86.04Y-53.1
X86.04Y-55.64
X86.04Y-58.18
X86.04Y-60.72
X86.04Y-63.26
X86.04Y-65.8
X86.04Y-68.34
X86.04Y-70.88
X86.04Y-73.42
X86.04Y-75.96
X86.04Y-78.5
X86.04Y-81.04
X86.04Y-83.58
X86.04Y-86.12
X86.04Y-88.66
X86.04Y-91.2
X86.04Y-93.74
X86.04Y-96.28
X86.04Y-98.82
X86.04Y-101.36
X86.04Y-103.9
X86.04Y-106.44
X86.04Y-108.98
X86.04Y-111.52
X86.04Y-114.06
X86.04Y-116.6
X86.04Y-119.14
X86.04Y-121.68
X86.04Y-124.22
X86.04Y-126.76
X86.04Y-129.3
X86.04Y-131.84
X86.04Y-134.38
X86.04Y-136.92
X86.04Y-139.46
X86.04Y-142.0
X86.04Y-144.54
X110.4Y-48.235
X110.4Y-50.775
X112.6Y-136.781
X112.6Y-139.321
X115.14Y-136.781
X115.14Y-139.321
X117.68Y-136.781
X117.68Y-139.321
X120.22Y-136.781
X120.22Y-139.321
X122.76Y-136.781
X122.76Y-139.321
X134.19Y-136.808
X134.19Y-139.347
X136.73Y-136.808
X136.73Y-139.347
X139.27Y-136.808
X139.27Y-139.347
X141.81Y-136.808
X141.81Y-139.347
X144.35Y-136.808
X144.35Y-139.347
X146.89Y-136.808
X146.89Y-139.347
X149.43Y-136.808
X149.43Y-139.347
X150.3Y-56.729
X151.97Y-136.808
X151.97Y-139.347
X152.8Y-56.729
X154.51Y-136.808
X154.51Y-139.347
X154.8Y-56.729
X157.05Y-136.808
X157.05Y-139.347
X157.3Y-56.729
X159.59Y-136.808
X159.59Y-139.347
X162.13Y-136.808
X162.13Y-139.347
X164.67Y-136.808
X164.67Y-139.347
X167.21Y-136.808
X167.21Y-139.347
X169.75Y-136.808
X169.75Y-139.347
X172.29Y-136.808
X172.29Y-139.347
X174.83Y-136.808
X174.83Y-139.347
X177.175Y-64.6
X179.715Y-64.6
X182.255Y-64.6
T6
X228.634Y-143.689
X233.155Y-143.689
T7
X172.13Y-116.66
X172.13Y-119.2
X172.13Y-121.74
X174.67Y-116.66
X174.67Y-119.2
X174.67Y-121.74
T8
X227.39Y-141.2
X234.4Y-141.2
T9
X147.73Y-54.019
X159.87Y-54.019
T10
X197.181Y-54.81
X222.175Y-54.81
T3
G00X231.505Y-94.101
M15
G01X232.405Y-94.101
M16
G05
G00X231.505Y-102.741
M15
G01X232.405Y-102.741
M16
G05
G00X231.505Y-112.28
M15
G01X232.405Y-112.28
M16
G05
G00X231.505Y-120.92
M15
G01X232.405Y-120.92
M16
G05
G00X235.835Y-94.101
M15
G01X236.435Y-94.101
M16
G05
G00X235.835Y-102.741
M15
G01X236.435Y-102.741
M16
G05
G00X235.835Y-112.28
M15
G01X236.435Y-112.28
M16
G05
G00X235.835Y-120.92
M15
G01X236.435Y-120.92
M16
G05
M30
