%TF.GenerationSoftware,KiCad,Pcbnew,9.0.0*%
%TF.CreationDate,2025-05-18T10:37:10+02:00*%
%TF.ProjectId,HexAgon,48657841-676f-46e2-9e6b-696361645f70,rev?*%
%TF.SameCoordinates,Original*%
%TF.FileFunction,Profile,NP*%
%FSLAX46Y46*%
G04 Gerber Fmt 4.6, Leading zero omitted, Abs format (unit mm)*
G04 Created by KiCad (PCBNEW 9.0.0) date 2025-05-18 10:37:10*
%MOMM*%
%LPD*%
G01*
G04 APERTURE LIST*
%TA.AperFunction,Profile*%
%ADD10C,0.050000*%
%TD*%
G04 APERTURE END LIST*
D10*
X239600000Y-43600000D02*
X238500000Y-43600000D01*
X239600000Y-44650000D02*
X239600000Y-43600000D01*
X79600000Y-43600000D02*
X238500000Y-43600000D01*
X79600000Y-44625000D02*
X79600000Y-43600000D01*
X79600000Y-146400000D02*
X80600000Y-146400000D01*
X79600000Y-145375233D02*
X79600000Y-146400000D01*
X186800000Y-146400000D02*
X185799767Y-146399767D01*
X186800000Y-145399767D02*
X186800000Y-146400000D01*
X186800000Y-144000000D02*
X187800000Y-144000000D01*
X186800000Y-145000000D02*
X186800000Y-144000000D01*
X206800000Y-144000000D02*
X206800000Y-145000000D01*
X205800000Y-144000000D02*
X206800000Y-144000000D01*
X206800000Y-146400000D02*
X206800000Y-145387500D01*
X207800000Y-146400000D02*
X206800000Y-146400000D01*
X239600000Y-146400000D02*
X239600000Y-145400000D01*
X238600000Y-146400000D02*
X239600000Y-146400000D01*
X238600000Y-146400000D02*
X207800000Y-146400000D01*
X206800000Y-145387500D02*
X206800000Y-145000000D01*
X79600000Y-44625000D02*
X79600000Y-145375233D01*
X186800000Y-145000000D02*
X186800000Y-145399767D01*
X205800000Y-144000000D02*
X187800000Y-144000000D01*
X185799767Y-146399767D02*
X80600000Y-146400000D01*
X239600000Y-44650000D02*
X239600000Y-145400000D01*
M02*
